<svg xmlns="http://www.w3.org/2000/svg" xmlns:xlink="http://www.w3.org/1999/xlink" width="600" height="400"><rect width="100%" height="100%" fill="#DDDDDD"/><path d="M150.17 175.49L159.48 175.49L159.48 225.37L150.17 225.37L150.17 203.57L126.74 203.57L126.74 225.37L117.43 225.37L117.43 175.49L126.74 175.49L126.74 196.95L150.17 196.95L150.17 175.49ZM175.97 203.61L192.05 203.61Q192.05 201.95 191.58 200.48Q191.12 199.02 190.19 197.91Q189.25 196.81 187.82 196.17Q186.39 195.53 184.49 195.53L184.49 195.53Q180.80 195.53 178.68 197.64Q176.56 199.74 175.97 203.61L175.97 203.61ZM197.71 208.75L175.80 208.75Q176.01 211.47 176.77 213.46Q177.53 215.44 178.77 216.73Q180.01 218.03 181.72 218.66Q183.42 219.30 185.49 219.30L185.49 219.30Q187.56 219.30 189.07 218.82Q190.57 218.34 191.69 217.75Q192.81 217.16 193.65 216.68Q194.50 216.20 195.29 216.20L195.29 216.20Q196.36 216.20 196.88 216.99L196.88 216.99L199.33 220.10Q197.91 221.75 196.16 222.87Q194.40 223.99 192.48 224.67Q190.57 225.34 188.58 225.62Q186.60 225.89 184.74 225.89L184.74 225.89Q181.04 225.89 177.87 224.67Q174.70 223.44 172.35 221.05Q170.00 218.65 168.66 215.11Q167.31 211.57 167.31 206.92L167.31 206.92Q167.31 203.29 168.49 200.10Q169.66 196.91 171.85 194.55Q174.04 192.19 177.20 190.81Q180.35 189.43 184.32 189.43L184.32 189.43Q187.67 189.43 190.50 190.50Q193.33 191.56 195.36 193.62Q197.40 195.67 198.55 198.65Q199.71 201.64 199.71 205.47L199.71 205.47Q199.71 207.40 199.29 208.07Q198.88 208.75 197.71 208.75L197.71 208.75ZM206.19 174.11L214.72 174.11L214.72 225.37L206.19 225.37L206.19 174.11ZM223.34 174.11L231.86 174.11L231.86 225.37L223.34 225.37L223.34 174.11ZM256.05 189.43L256.05 189.43Q259.98 189.43 263.21 190.70Q266.43 191.98 268.73 194.32Q271.02 196.67 272.26 200.05Q273.50 203.43 273.50 207.61L273.50 207.61Q273.50 211.82 272.26 215.20Q271.02 218.58 268.73 220.96Q266.43 223.34 263.21 224.62Q259.98 225.89 256.05 225.89L256.05 225.89Q252.08 225.89 248.84 224.62Q245.59 223.34 243.30 220.96Q241.01 218.58 239.75 215.20Q238.49 211.82 238.49 207.61L238.49 207.61Q238.49 203.43 239.75 200.05Q241.01 196.67 243.30 194.32Q245.59 191.98 248.84 190.70Q252.08 189.43 256.05 189.43ZM256.05 219.34L256.05 219.34Q260.46 219.34 262.58 216.37Q264.71 213.40 264.71 207.68L264.71 207.68Q264.71 201.95 262.58 198.95Q260.46 195.95 256.05 195.95L256.05 195.95Q251.56 195.95 249.41 198.97Q247.25 201.98 247.25 207.68L247.25 207.68Q247.25 213.37 249.41 216.35Q251.56 219.34 256.05 219.34ZM357.24 175.49L364.52 175.49L349.02 225.37L340.64 225.37L329.74 191.29Q329.29 190.05 328.91 188.25L328.91 188.25Q328.70 189.12 328.50 189.87Q328.29 190.63 328.05 191.29L328.05 191.29L317.04 225.37L308.63 225.37L293.17 175.49L300.93 175.49Q302.14 175.49 302.95 176.06Q303.76 176.63 304.04 177.59L304.04 177.59L312.52 207.43Q312.80 208.54 313.06 209.83Q313.32 211.13 313.59 212.54L313.59 212.54Q313.87 211.09 314.20 209.82Q314.52 208.54 314.90 207.43L314.90 207.43L324.70 177.59Q324.98 176.80 325.79 176.14Q326.60 175.49 327.77 175.49L327.77 175.49L330.50 175.49Q331.71 175.49 332.46 176.07Q333.22 176.66 333.60 177.59L333.60 177.59L343.37 207.43Q344.09 209.57 344.68 212.37L344.68 212.37Q345.13 209.64 345.68 207.43L345.68 207.43L354.17 177.59Q354.37 176.73 355.22 176.11Q356.06 175.49 357.24 175.49L357.24 175.49ZM384.97 189.43L384.97 189.43Q388.91 189.43 392.13 190.70Q395.36 191.98 397.65 194.32Q399.95 196.67 401.19 200.05Q402.43 203.43 402.43 207.61L402.43 207.61Q402.43 211.82 401.19 215.20Q399.95 218.58 397.65 220.96Q395.36 223.34 392.13 224.62Q388.91 225.89 384.97 225.89L384.97 225.89Q381.01 225.89 377.76 224.62Q374.52 223.34 372.23 220.96Q369.93 218.58 368.67 215.20Q367.41 211.82 367.41 207.61L367.41 207.61Q367.41 203.43 368.67 200.05Q369.93 196.67 372.23 194.32Q374.52 191.98 377.76 190.70Q381.01 189.43 384.97 189.43ZM384.97 219.34L384.97 219.34Q389.39 219.34 391.51 216.37Q393.63 213.40 393.63 207.68L393.63 207.68Q393.63 201.95 391.51 198.95Q389.39 195.95 384.97 195.95L384.97 195.95Q380.49 195.95 378.33 198.97Q376.18 201.98 376.18 207.68L376.18 207.68Q376.18 213.37 378.33 216.35Q380.49 219.34 384.97 219.34ZM416.47 192.12L416.99 196.12Q418.65 192.94 420.92 191.13Q423.20 189.32 426.30 189.32L426.30 189.32Q428.75 189.32 430.24 190.39L430.24 190.39L429.69 196.77Q429.51 197.40 429.19 197.65Q428.86 197.91 428.31 197.91L428.31 197.91Q427.79 197.91 426.77 197.74Q425.75 197.57 424.79 197.57L424.79 197.57Q423.37 197.57 422.27 197.98Q421.16 198.40 420.28 199.17Q419.40 199.95 418.73 201.05Q418.06 202.16 417.47 203.57L417.47 203.57L417.47 225.37L408.95 225.37L408.95 189.98L413.95 189.98Q415.26 189.98 415.78 190.44Q416.30 190.91 416.47 192.12L416.47 192.12ZM434.79 174.11L443.31 174.11L443.31 225.37L434.79 225.37L434.79 174.11ZM474.05 214.89L474.05 199.02Q472.60 197.26 470.90 196.53Q469.19 195.81 467.22 195.81L467.22 195.81Q465.29 195.81 463.74 196.53Q462.18 197.26 461.08 198.72Q459.98 200.19 459.39 202.45Q458.80 204.71 458.80 207.78L458.80 207.78Q458.80 210.88 459.30 213.04Q459.80 215.20 460.74 216.56Q461.67 217.92 463.01 218.53Q464.36 219.13 466.01 219.13L466.01 219.13Q468.67 219.13 470.53 218.03Q472.40 216.92 474.05 214.89L474.05 214.89ZM474.05 174.11L482.57 174.11L482.57 225.37L477.36 225.37Q475.67 225.37 475.23 223.82L475.23 223.82L474.50 220.41Q472.36 222.86 469.58 224.37Q466.81 225.89 463.12 225.89L463.12 225.89Q460.22 225.89 457.80 224.68Q455.39 223.48 453.65 221.18Q451.90 218.89 450.95 215.51Q450.01 212.13 450.01 207.78L450.01 207.78Q450.01 203.85 451.08 200.47Q452.15 197.08 454.15 194.60Q456.15 192.12 458.94 190.72Q461.74 189.32 465.22 189.32L465.22 189.32Q468.19 189.32 470.29 190.25Q472.40 191.19 474.05 192.77L474.05 192.77L474.05 174.11Z" fill="#999999"/></svg>